# xmcd CD database file
#
# Track frame offsets:
#	150
#	18168
#	34805
#	50428
#	75569
#	93228
#	107247
#	131827
#	152155
#	167962
#	188457
#	206810
#	224709
#	248514
#	263590
#
# Disc length: 3758 seconds
#
# Revision: 0
# Processed by: cddbd v1.5.1PL0 Copyright (c) Steve Scherf et al.
# Submitted via: CDex 1.51
#
DISCID=c90eac0f
DTITLE=Jürgen Schwab and Götz Ommert - Swing 'n' Strings
DYEAR=2001
DGENRE=Jazz
TTITLE0=Autumn Leaves
TTITLE1=You Are The Sunshine Of My Live
TTITLE2=Take The 'A'-Train
TTITLE3=A Foggy Day
TTITLE4=When I Fall In Love
TTITLE5=Have You Met Miss Jones
TTITLE6=Wave
TTITLE7=Don't Get Around Much Anymore
TTITLE8=Turnaround
TTITLE9=Quiet Nights
TTITLE10=Route 66
TTITLE11=Worksong
TTITLE12=The Days Of Wine And Roses
TTITLE13=Leroy Brown
TTITLE14=Tenor Madness
EXTD=YEAR: 2001
EXTT0=
EXTT1=
EXTT2=
EXTT3=
EXTT4=
EXTT5=
EXTT6=
EXTT7=
EXTT8=
EXTT9=
EXTT10=
EXTT11=
EXTT12=
EXTT13=
EXTT14=
PLAYORDER=
